# xmcd
#
# Track frame offsets: 
#        150
#        21736
#        49432
#        68707
#        84384
#        105346
#        127051
#        148538
#        174172
#        193672
#        229972
#        249864
#
# Disc length: 3684 seconds
#
# Revision: 4
# Processed by: cddbd v1.5.2PL0 Copyright (c) Steve Scherf et al.
# Submitted via: ExactAudioCopyFreeDBPlugin 1.0
#
DISCID=a40e620c
DTITLE=SYNC.ART'S - CHAOS
DYEAR=2007
DGENRE=東方アレンジ
TTITLE0=おみなえし
TTITLE1=Septet Pour Une Infante défunte
TTITLE2=Fusion少女
TTITLE3=エピクロスの虹はもう見えない
TTITLE4=スーパー人形裁判II
TTITLE5=End of Dream
TTITLE6=じたくふぁんたじあ
TTITLE7=Oriental dark flower
TTITLE8=Ephemeral Desire
TTITLE9=Boundary of space
TTITLE10=Graveyard in lake
TTITLE11=たましいふわふわ
EXTD=YEAR: 2007
EXTT0=
EXTT1=
EXTT2=
EXTT3=
EXTT4=
EXTT5=
EXTT6=
EXTT7=
EXTT8=
EXTT9=
EXTT10=
EXTT11=
PLAYORDER=
